<?xml version="1.0" standalone="no"?>
<!DOCTYPE svg PUBLIC "-//W3C//DTD SVG 20010904//EN"
 "http://www.w3.org/TR/2001/REC-SVG-20010904/DTD/svg10.dtd">
<svg version="1.0" xmlns="http://www.w3.org/2000/svg"
 width="1603.000000pt" height="1603.000000pt" viewBox="0 0 1603.000000 1603.000000"
 preserveAspectRatio="xMidYMid meet">
<metadata>
Created by potrace 1.14, written by Peter Selinger 2001-2017
</metadata>
<g transform="translate(0.000000,1603.000000) scale(0.100000,-0.100000)"
fill="#000000" stroke="none">
<path d="M8195 14693 c-38 -24 -86 -51 -105 -60 -19 -9 -37 -20 -40 -24 -3 -4
-12 -9 -20 -11 -14 -3 -21 -7 -55 -36 -8 -7 -15 -10 -15 -7 0 3 -17 -6 -37
-20 -21 -14 -43 -25 -50 -25 -7 0 -13 -4 -13 -10 0 -5 -7 -10 -15 -10 -8 0
-15 -5 -15 -11 0 -5 -4 -8 -9 -5 -5 3 -14 -1 -21 -9 -7 -8 -18 -15 -25 -15 -7
0 -18 -7 -25 -15 -7 -8 -16 -13 -20 -10 -5 3 -10 1 -12 -3 -1 -5 -34 -26 -73
-47 -38 -21 -72 -42 -75 -45 -3 -3 -31 -19 -63 -35 -32 -17 -67 -38 -78 -48
-10 -10 -19 -15 -19 -12 0 3 -12 -2 -26 -12 -41 -27 -87 -52 -121 -68 -18 -9
-33 -20 -33 -26 0 -5 -4 -8 -9 -5 -5 3 -14 -1 -21 -9 -7 -8 -21 -15 -32 -15
-10 0 -21 -7 -24 -15 -4 -8 -12 -15 -19 -15 -7 0 -24 -9 -39 -21 -14 -11 -26
-17 -26 -14 0 4 -6 2 -14 -4 -23 -19 -177 -110 -197 -116 -10 -4 -19 -11 -19
-17 0 -6 -3 -8 -6 -5 -4 3 -18 -3 -32 -13 -13 -11 -30 -20 -38 -20 -7 0 -14
-3 -16 -8 -4 -10 -165 -102 -178 -102 -5 0 -10 -4 -10 -8 0 -4 -24 -20 -52
-35 -29 -16 -71 -39 -93 -53 -22 -13 -59 -34 -82 -46 -24 -12 -43 -26 -43 -30
0 -4 -8 -8 -19 -8 -10 0 -24 -7 -31 -15 -7 -8 -18 -15 -26 -15 -7 0 -18 -8
-23 -17 -6 -10 -11 -14 -11 -10 0 5 -13 -1 -29 -12 -16 -12 -31 -21 -34 -21
-10 0 -132 -74 -135 -82 -2 -5 -12 -8 -23 -8 -10 0 -19 -3 -19 -7 0 -5 -18
-17 -40 -27 -22 -11 -40 -23 -40 -28 0 -5 -4 -6 -10 -3 -5 3 -10 1 -10 -4 0
-6 -9 -11 -20 -11 -11 0 -20 -4 -20 -8 0 -7 -67 -47 -127 -76 -13 -6 -23 -15
-23 -19 0 -5 -4 -5 -10 -2 -5 3 -10 2 -10 -3 0 -5 -8 -12 -17 -16 -23 -7 -56
-28 -65 -41 -4 -5 -8 -6 -8 -1 0 5 -9 1 -20 -9 -11 -10 -20 -14 -20 -9 0 5 -4
4 -8 -2 -4 -6 -34 -25 -67 -44 -33 -19 -62 -37 -65 -41 -3 -4 -18 -11 -33 -14
-15 -4 -27 -10 -27 -14 0 -4 -25 -20 -55 -36 -30 -15 -55 -32 -55 -37 0 -5 -4
-7 -9 -4 -4 3 -19 -3 -31 -14 -13 -11 -29 -20 -37 -20 -7 0 -13 -4 -13 -10 0
-5 -4 -10 -10 -10 -16 0 -190 -102 -190 -112 0 -5 -4 -7 -8 -4 -5 3 -18 -3
-29 -14 -12 -10 -23 -16 -26 -14 -3 3 -33 -13 -66 -35 -34 -23 -61 -39 -61
-37 0 3 -16 -6 -36 -19 -19 -13 -44 -27 -55 -30 -10 -4 -19 -11 -19 -16 0 -5
-5 -9 -11 -9 -6 0 -44 -19 -83 -43 -39 -24 -79 -46 -88 -50 -10 -3 -18 -11
-18 -17 0 -6 -4 -9 -9 -5 -5 3 -17 -2 -25 -11 -9 -8 -16 -13 -16 -9 0 3 -13
-3 -29 -14 -16 -12 -34 -21 -40 -21 -6 0 -11 -4 -11 -10 0 -5 -5 -10 -11 -10
-6 0 -23 -9 -39 -20 -15 -11 -30 -17 -34 -13 -3 3 -6 2 -6 -3 0 -5 -25 -23
-55 -38 -30 -16 -63 -37 -72 -46 -10 -9 -24 -15 -31 -12 -6 2 -12 -1 -12 -7 0
-6 -4 -11 -9 -11 -9 0 -131 -69 -141 -80 -3 -3 -24 -14 -47 -25 -24 -11 -43
-23 -43 -27 0 -5 -7 -8 -15 -8 -8 0 -15 -5 -15 -12 0 -6 -3 -8 -6 -5 -4 3 -18
-3 -32 -13 -13 -11 -31 -20 -38 -20 -8 0 -14 -4 -14 -8 0 -4 -12 -13 -27 -20
-39 -16 -97 -52 -104 -64 -3 -5 -10 -10 -15 -10 -24 -2 -44 -11 -44 -20 0 -5
-4 -6 -10 -3 -5 3 -10 2 -10 -3 0 -5 -26 -22 -57 -37 -32 -16 -60 -32 -63 -36
-3 -4 -25 -17 -50 -30 -25 -13 -51 -29 -58 -36 -7 -7 -20 -13 -28 -13 -8 0
-14 -5 -14 -11 0 -5 -4 -8 -9 -5 -5 3 -14 -1 -21 -9 -7 -8 -19 -15 -26 -15 -8
0 -14 -5 -14 -11 0 -5 -4 -7 -10 -4 -5 3 -10 1 -10 -4 0 -6 -5 -11 -10 -11 -6
0 -35 -15 -65 -34 -29 -19 -56 -32 -59 -29 -3 4 -6 2 -6 -4 0 -5 -21 -20 -47
-33 -27 -13 -50 -26 -53 -30 -3 -4 -30 -20 -60 -36 -30 -16 -57 -31 -60 -34
-3 -3 -14 -10 -25 -16 -105 -58 -381 -220 -386 -227 -3 -5 -10 -8 -15 -8 -5 1
-16 -4 -24 -11 -8 -7 -31 -21 -50 -31 -19 -9 -62 -33 -95 -52 -33 -20 -68 -38
-77 -41 -10 -4 -18 -10 -18 -14 0 -4 -11 -11 -25 -14 -14 -4 -25 -10 -25 -15
0 -5 -16 -15 -35 -21 -19 -6 -35 -16 -35 -21 0 -6 -4 -7 -10 -4 -5 3 -10 2
-10 -4 0 -5 -10 -13 -22 -17 -13 -4 -25 -10 -28 -15 -3 -4 -12 -9 -20 -11 -8
-2 -23 -11 -34 -20 -11 -10 -26 -18 -33 -18 -7 0 -13 -4 -13 -10 0 -5 -5 -10
-11 -10 -6 0 -38 -16 -72 -36 -34 -20 -75 -44 -92 -54 -16 -9 -53 -31 -81 -48
-28 -18 -54 -32 -57 -32 -5 0 -128 -73 -146 -87 -7 -5 28 -29 79 -55 25 -13
51 -29 58 -35 7 -7 20 -13 27 -13 8 0 19 -8 24 -17 6 -10 11 -15 11 -11 0 4
22 -5 48 -22 l48 -29 -1 -108 c0 -60 -4 -113 -8 -119 -3 -6 -3 -14 0 -18 10
-9 10 -257 1 -262 -4 -3 -3 -15 1 -27 5 -12 5 -32 0 -45 -6 -15 -5 -21 1 -17
7 4 7 -3 0 -19 -5 -14 -6 -26 -2 -26 4 0 7 -18 7 -40 0 -22 -3 -40 -7 -40 -4
0 -3 -12 1 -27 5 -16 6 -37 4 -48 -6 -30 -5 -73 2 -95 4 -12 2 -20 -5 -20 -6
0 -8 -5 -4 -12 10 -16 13 -48 4 -48 -3 0 -6 -14 -5 -30 0 -16 3 -30 7 -30 4 0
3 -12 -1 -27 -5 -16 -6 -37 -4 -48 3 -11 4 -31 3 -45 -2 -28 -2 -27 2 -88 2
-23 1 -42 -2 -42 -3 0 -5 -18 -5 -40 0 -22 3 -40 7 -40 4 0 4 -10 0 -22 -4
-13 -7 -248 -7 -523 0 -322 -4 -503 -10 -507 -7 -5 -7 -8 0 -8 11 0 11 -232 0
-249 -3 -6 -2 -11 4 -11 6 0 8 -6 5 -13 -2 -7 -6 -256 -7 -553 -1 -296 -6
-545 -10 -551 -5 -7 -5 -13 0 -13 10 0 10 -211 0 -227 -5 -7 -4 -13 1 -13 8 0
9 -62 2 -95 -1 -5 -2 -12 -1 -15 7 -19 5 -110 -2 -110 -4 0 -4 -8 2 -17 5 -10
5 -26 1 -39 -5 -12 -6 -25 -3 -28 10 -10 8 -86 -2 -86 -7 0 -7 -3 0 -8 6 -4
10 -20 10 -37 0 -16 -4 -33 -10 -37 -6 -5 -6 -8 1 -8 6 0 11 -7 11 -15 0 -8
-4 -15 -9 -15 -5 0 -4 -9 2 -20 6 -11 7 -20 3 -20 -4 0 -8 -16 -8 -35 0 -19 4
-35 8 -35 5 0 5 -5 1 -12 -9 -14 -9 -163 0 -177 4 -5 2 -12 -3 -16 -10 -5 -7
-36 4 -55 3 -6 3 -10 -2 -10 -4 0 -8 -118 -8 -262 l0 -263 50 -31 c28 -16 57
-33 65 -37 8 -4 29 -16 45 -27 17 -10 46 -27 65 -37 19 -9 37 -20 40 -23 5 -6
104 -64 200 -118 25 -13 52 -30 60 -37 8 -6 22 -15 30 -18 8 -4 33 -18 55 -31
22 -14 59 -35 82 -47 24 -13 43 -27 43 -31 0 -5 4 -7 9 -3 5 3 12 1 16 -4 3
-6 26 -20 51 -33 25 -12 57 -33 70 -45 14 -12 27 -23 29 -23 3 0 11 0 18 0 7
0 22 -8 33 -18 10 -10 34 -24 52 -31 17 -7 32 -17 32 -20 0 -4 16 -13 35 -21
19 -8 35 -17 35 -22 0 -4 4 -8 10 -8 12 0 163 -91 171 -103 3 -5 10 -9 15 -8
7 0 124 -66 239 -136 11 -7 39 -22 63 -34 23 -11 42 -24 42 -28 0 -3 13 -12
29 -19 34 -15 190 -106 209 -122 6 -6 12 -8 12 -5 0 3 15 -5 33 -19 19 -15 39
-26 45 -26 7 0 12 -5 12 -11 0 -5 4 -8 9 -4 5 3 15 -1 23 -8 17 -17 157 -97
169 -97 5 0 9 -4 9 -10 0 -5 6 -10 14 -10 7 0 19 -7 26 -15 7 -8 16 -12 21 -9
5 3 9 1 9 -3 0 -5 17 -17 38 -28 63 -33 187 -109 194 -120 4 -5 8 -6 8 -1 0 4
15 -3 34 -17 18 -15 36 -24 38 -21 3 2 16 -6 30 -18 14 -13 30 -24 36 -25 12
-3 255 -144 262 -153 3 -3 20 -12 38 -19 17 -8 32 -17 32 -22 0 -5 5 -9 11 -9
7 0 39 -17 73 -38 34 -21 68 -42 76 -45 8 -4 33 -18 55 -32 22 -14 50 -30 63
-35 12 -5 22 -13 22 -18 0 -5 6 -9 13 -9 6 0 32 -13 57 -28 66 -43 123 -75
143 -82 9 -3 17 -8 17 -12 0 -4 18 -15 40 -25 22 -10 40 -22 40 -27 0 -6 5 -7
10 -4 6 3 10 1 10 -5 0 -6 4 -8 10 -5 5 3 10 3 10 -2 0 -4 18 -17 40 -27 22
-11 40 -24 40 -29 0 -6 3 -7 6 -4 4 4 19 -2 34 -13 16 -11 33 -20 39 -20 6 0
11 -4 11 -10 0 -5 7 -10 15 -10 8 0 15 -5 15 -12 0 -6 3 -9 6 -5 3 3 11 1 18
-4 18 -16 126 -78 126 -73 0 3 6 0 13 -6 16 -15 85 -56 125 -75 17 -8 32 -20
32 -25 0 -6 3 -9 8 -8 4 2 50 -23 104 -55 53 -31 108 -62 122 -68 14 -7 26
-15 26 -19 0 -3 16 -12 35 -20 19 -8 35 -17 35 -22 0 -4 5 -8 10 -8 6 0 36
-16 66 -35 30 -19 56 -35 59 -35 9 0 110 -64 117 -74 4 -6 8 -7 8 -3 0 5 13
-1 29 -12 16 -12 33 -21 38 -21 6 0 18 -9 28 -20 10 -11 26 -20 37 -20 10 0
18 -4 18 -8 0 -5 15 -16 33 -25 17 -8 50 -27 73 -41 l41 -25 -1 84 c-1 51 3
85 9 85 7 0 7 3 0 8 -13 9 -14 92 -1 92 6 0 6 4 -1 11 -8 8 -8 20 -3 35 5 13
6 24 2 24 -4 0 -7 1182 -7 2628 l1 2627 24 45 c14 25 28 47 31 50 3 3 12 17
20 31 8 15 24 44 35 65 12 22 31 56 42 76 10 21 22 34 26 31 3 -4 6 -2 6 4 0
6 17 20 38 30 89 47 138 76 144 87 4 6 8 7 8 2 0 -5 8 -2 18 7 10 10 22 14 25
10 4 -3 7 0 7 7 0 7 3 11 6 7 3 -3 15 3 27 13 11 11 24 17 29 14 4 -3 8 -1 8
3 0 5 23 19 50 32 28 13 50 28 50 34 0 6 3 7 6 4 4 -4 19 2 33 12 46 31 260
151 271 151 5 0 10 4 10 9 0 5 11 12 25 15 14 4 25 11 25 16 0 6 6 10 14 10 8
0 22 7 30 16 9 8 16 12 16 8 0 -4 8 0 18 8 9 8 49 32 87 53 39 21 82 47 96 56
14 10 28 16 31 13 3 -2 11 2 18 11 7 8 16 15 21 15 4 0 25 11 45 25 44 30 58
32 45 6 -6 -10 -7 -21 -4 -25 11 -11 9 -116 -2 -116 -7 0 -7 -3 0 -8 7 -4 11
-87 10 -229 0 -123 2 -223 5 -223 7 0 3 -127 -5 -139 -3 -6 -3 -11 2 -11 4 0
8 -107 8 -238 0 -146 4 -240 10 -244 7 -5 7 -8 0 -8 -10 0 -11 -79 -1 -105 3
-8 1 -17 -5 -20 -5 -4 -6 -12 -2 -18 11 -18 12 -36 2 -43 -5 -3 -6 -10 -3 -16
3 -5 8 -136 9 -290 2 -153 5 -282 8 -284 3 -3 14 -1 24 4 15 8 18 6 18 -14 0
-13 -4 -24 -10 -24 -7 0 -7 -3 0 -8 6 -4 10 -20 10 -37 0 -16 -4 -33 -10 -37
-7 -5 -7 -8 0 -8 7 0 10 -894 9 -2663 0 -1464 2 -2668 6 -2675 5 -11 9 -10 19
2 8 9 20 16 27 16 8 0 14 5 14 10 0 6 5 10 10 10 6 0 22 8 37 17 14 10 33 18
41 19 8 2 18 7 21 12 7 10 132 81 144 81 4 0 17 9 28 19 11 11 39 28 62 38 23
10 48 24 54 31 7 6 31 19 53 29 22 10 40 21 40 26 0 4 9 8 20 8 11 0 20 4 20
8 0 5 18 17 40 27 22 10 40 21 40 24 0 6 60 32 69 30 2 0 7 4 10 9 3 5 23 19
44 31 20 11 52 29 70 39 67 38 82 46 90 47 4 0 11 5 15 11 4 6 22 17 40 25 17
8 32 18 32 22 0 5 6 7 13 4 6 -2 17 2 22 9 6 6 42 29 80 50 39 20 72 40 75 44
3 3 27 17 53 31 85 43 102 52 107 59 6 7 32 18 40 16 3 0 16 9 28 20 13 12 42
30 65 40 23 10 48 24 54 31 7 6 31 19 53 29 22 10 40 21 40 26 0 4 5 8 11 8 6
0 49 23 96 50 47 28 89 50 94 50 5 0 9 5 9 10 0 6 9 10 19 10 11 0 21 4 23 9
2 4 35 25 73 46 39 21 72 41 75 44 3 3 28 17 55 31 28 13 52 28 55 32 3 4 17
12 30 17 14 6 32 15 40 21 22 14 162 95 180 103 8 4 31 17 50 29 19 11 60 34
90 51 30 17 66 38 80 47 25 17 58 31 63 27 1 -1 12 7 24 18 12 11 39 29 60 40
44 23 181 100 203 115 8 6 24 14 35 20 11 5 43 23 70 39 28 17 68 40 90 51 22
11 54 29 70 40 17 11 39 24 50 30 11 5 47 25 80 45 33 20 68 38 78 42 9 3 17
9 17 14 0 5 6 9 14 9 7 0 25 9 40 21 14 11 26 18 26 15 0 -3 36 17 79 44 43
27 82 46 85 43 3 -4 6 -1 6 5 0 7 6 12 13 12 7 0 22 8 33 18 11 9 26 18 34 20
8 2 18 9 22 15 4 7 8 9 8 5 0 -4 25 8 55 27 30 20 55 32 55 28 0 -4 4 -3 8 3
9 13 129 84 143 84 5 0 9 5 9 11 0 6 6 9 12 7 7 -3 21 3 31 12 10 10 39 28 65
41 26 13 49 26 52 29 3 3 21 14 40 23 19 10 49 27 65 37 17 11 37 23 45 27 8
3 27 15 42 25 14 10 33 18 42 18 8 0 19 6 23 13 4 6 24 20 43 31 19 10 61 32
93 49 31 16 57 34 57 39 0 4 3 8 8 7 13 -2 52 13 52 20 0 4 23 18 50 31 28 13
50 27 50 32 0 4 6 8 13 8 7 0 29 11 50 25 20 14 37 23 37 20 0 -4 7 1 16 9 8
9 19 14 24 11 4 -3 11 2 14 11 3 8 10 12 16 9 5 -3 10 -1 10 4 0 6 7 11 15 11
8 0 15 5 15 11 0 5 5 7 10 4 6 -3 10 -1 10 5 0 6 4 9 9 6 5 -4 11 -3 13 1 4
10 56 41 91 54 15 6 27 15 27 20 0 5 5 9 11 9 6 0 23 9 39 20 15 11 30 17 34
13 3 -3 6 -1 6 6 0 7 5 9 10 6 6 -3 10 -2 10 2 0 5 24 21 53 36 28 16 66 37
82 47 17 11 37 23 45 27 8 3 27 14 41 24 14 10 29 16 33 12 3 -3 6 -1 6 6 0 7
5 9 10 6 6 -3 10 -2 10 3 0 5 18 17 40 28 22 10 40 22 40 27 0 4 9 7 20 7 11
0 20 4 20 8 0 4 24 20 53 35 28 16 75 41 102 58 28 16 58 32 68 35 9 4 17 11
17 17 0 6 3 8 6 4 4 -3 26 7 49 23 23 16 45 27 47 24 3 -2 11 2 18 11 7 8 17
15 23 15 6 0 18 6 26 14 9 7 41 26 71 42 30 15 74 41 97 57 24 15 43 25 43 22
0 -4 7 1 16 9 8 9 20 14 25 11 5 -4 9 -1 9 5 0 6 4 9 9 5 15 -9 35 36 32 75
-2 43 -1 76 3 112 2 16 -1 28 -6 28 -5 0 -6 5 -2 12 12 19 11 548 -1 548 -7 0
-7 3 0 8 14 10 14 105 1 114 -7 5 -7 8 -1 8 7 0 10 257 9 753 -1 413 -3 757
-4 762 -1 6 -1 15 1 20 1 6 3 692 4 1524 l1 1515 45 28 c24 15 64 38 89 50 25
13 51 29 58 36 8 6 17 10 22 7 5 -3 10 -1 12 3 3 8 66 46 156 93 23 12 42 26
42 30 0 4 -11 14 -25 23 -14 9 -25 14 -25 11 0 -3 -10 3 -22 15 -12 11 -28 20
-35 20 -7 0 -13 3 -13 8 0 4 -18 15 -40 25 -22 9 -40 21 -40 27 0 5 -6 10 -13
10 -7 0 -37 16 -66 36 -30 19 -59 36 -65 37 -10 2 -17 7 -50 35 -8 6 -18 12
-21 12 -4 0 -81 45 -171 100 -91 55 -169 100 -175 100 -5 0 -9 5 -9 10 0 6 -4
10 -10 10 -9 0 -110 58 -120 69 -8 10 -84 52 -102 58 -10 3 -18 9 -18 14 0 5
-5 9 -11 9 -6 0 -29 13 -52 28 -23 15 -59 36 -79 47 -21 11 -38 23 -38 28 0 4
-4 5 -10 2 -5 -3 -10 -3 -10 2 0 4 -14 14 -30 21 -17 8 -36 19 -43 25 -16 16
-87 57 -109 64 -10 3 -18 9 -18 14 0 5 -6 9 -14 9 -8 0 -16 4 -18 9 -2 5 -10
11 -18 13 -8 2 -17 5 -20 8 -14 14 -70 50 -78 50 -5 0 -21 9 -36 21 -14 11
-26 17 -26 12 0 -4 -5 0 -11 10 -5 9 -19 17 -29 17 -11 0 -20 4 -20 8 0 5 -17
17 -37 28 -55 30 -86 48 -100 59 -30 24 -40 30 -53 33 -8 2 -20 8 -27 14 -22
18 -125 78 -134 78 -5 0 -9 3 -9 8 0 4 -15 13 -32 21 -18 8 -35 17 -38 21 -3
3 -27 19 -55 35 -138 81 -200 118 -205 125 -3 3 -20 12 -37 19 -18 8 -33 17
-33 22 0 5 -6 9 -14 9 -7 0 -19 7 -26 15 -7 8 -16 12 -21 9 -5 -3 -9 0 -9 5 0
6 -6 11 -13 11 -7 0 -23 9 -35 20 -12 11 -24 20 -28 20 -3 0 -18 9 -33 19 -15
11 -34 21 -42 23 -8 2 -16 5 -19 8 -3 3 -34 24 -70 45 -36 22 -75 45 -85 52
-11 7 -45 27 -75 44 -30 18 -74 45 -96 60 -23 16 -48 29 -55 31 -8 2 -16 6
-19 9 -3 4 -41 29 -85 55 -44 27 -89 55 -100 61 -11 7 -32 18 -47 25 -16 7
-28 16 -28 20 0 4 -7 8 -15 8 -8 0 -15 4 -15 8 0 5 -16 14 -35 22 -19 8 -35
17 -35 21 0 3 -13 12 -30 19 -16 7 -30 17 -30 23 0 6 -3 8 -6 4 -3 -3 -30 10
-59 29 -30 19 -59 34 -65 34 -5 0 -10 5 -10 10 0 6 -6 10 -13 10 -7 0 -22 8
-33 18 -11 9 -36 25 -55 35 -68 37 -94 52 -99 58 -10 10 -110 69 -119 69 -5 0
-14 7 -21 15 -7 9 -15 13 -17 11 -3 -3 -13 3 -23 12 -10 9 -40 28 -67 42 -26
14 -57 32 -68 41 -11 9 -40 27 -65 40 -25 13 -46 27 -48 32 -2 4 -8 7 -13 7
-5 0 -49 25 -98 55 -49 30 -94 55 -99 55 -5 0 -12 7 -16 15 -3 8 -12 15 -19
15 -8 0 -25 8 -38 18 -13 10 -44 30 -69 43 -25 13 -47 27 -50 30 -3 3 -12 9
-20 12 -8 4 -28 16 -45 27 -16 11 -43 27 -60 35 -16 9 -57 33 -90 55 -33 21
-66 39 -72 39 -7 1 -13 5 -13 9 0 4 -22 19 -50 33 -27 13 -50 27 -50 32 0 4
-6 7 -13 7 -8 0 -22 9 -32 20 -10 11 -20 18 -23 16 -2 -3 -33 14 -69 36 l-65
41 -22 -24 c-12 -14 -21 -30 -18 -37 2 -6 -1 -12 -6 -12 -5 0 -15 -13 -22 -30
-7 -16 -16 -30 -21 -30 -5 0 -9 -9 -9 -20 0 -11 -5 -20 -11 -20 -5 0 -15 -13
-20 -30 -10 -27 -20 -35 -41 -31 -5 0 -9 -8 -9 -19 -3 -42 -18 -80 -32 -80 -7
-1 -3 -6 9 -13 18 -11 20 -21 20 -117 -1 -58 -5 -111 -9 -117 -5 -7 -4 -13 1
-13 12 0 9 -63 -3 -72 -7 -5 -7 -8 0 -8 9 0 14 -164 5 -195 -1 -5 -1 -12 0
-15 7 -15 6 -90 -1 -90 -5 0 -4 -11 1 -25 6 -16 6 -25 -1 -25 -6 0 -6 -6 0
-18 6 -11 6 -24 0 -35 -6 -10 -6 -17 -1 -17 10 0 7 -54 -3 -71 -4 -5 -2 -9 3
-9 5 0 8 -12 6 -27 -4 -30 -5 -64 -3 -103 1 -14 1 -38 0 -55 -1 -16 -1 -37 -1
-45 1 -8 -1 -39 -2 -68 -2 -30 0 -56 4 -58 5 -3 5 -11 1 -17 -10 -16 -9 -49 2
-67 5 -8 5 -15 -1 -17 -10 -3 -10 -95 0 -111 3 -6 3 -13 -1 -15 -10 -6 -9 -79
1 -95 4 -7 4 -12 -1 -12 -4 0 -8 -282 -8 -628 0 -345 -3 -635 -8 -644 -4 -9
-4 -19 0 -21 10 -6 9 -59 -1 -75 -4 -7 -2 -12 4 -12 6 0 8 -5 5 -10 -3 -6 -7
-322 -9 -703 -1 -382 -6 -699 -10 -705 -4 -7 -3 -12 3 -12 6 0 6 -11 1 -29 -5
-19 -5 -31 1 -33 7 -2 7 -13 0 -30 -6 -17 -7 -30 -1 -33 6 -3 6 -15 0 -30 -6
-16 -6 -25 0 -25 12 0 9 -22 -5 -32 -7 -5 -7 -8 0 -8 11 0 11 -82 1 -99 -4 -5
-2 -12 2 -15 5 -3 6 -26 2 -50 -4 -27 -3 -49 4 -56 6 -6 6 -10 0 -10 -5 0 -9
-49 -9 -115 0 -63 3 -115 6 -115 4 0 3 -16 -1 -35 -5 -21 -4 -35 2 -35 5 0 6
-6 1 -12 -11 -19 -11 -58 0 -58 6 0 6 -5 0 -12 -5 -7 -9 -86 -8 -175 1 -130
-1 -163 -12 -163 -7 0 -13 -4 -13 -8 0 -5 -21 -18 -47 -30 -27 -12 -66 -34
-88 -48 -22 -13 -48 -27 -57 -31 -10 -3 -18 -10 -18 -16 0 -6 -3 -7 -6 -4 -4
4 -19 -2 -33 -11 -14 -10 -43 -27 -63 -37 -21 -11 -38 -23 -38 -28 0 -4 -4 -5
-10 -2 -5 3 -10 1 -10 -5 0 -6 -4 -8 -10 -5 -5 3 -10 1 -10 -5 0 -6 -4 -8 -10
-5 -5 3 -10 2 -10 -3 0 -6 -11 -13 -25 -16 -14 -4 -25 -11 -25 -16 0 -6 -7
-10 -15 -10 -8 0 -15 -5 -15 -10 0 -6 -3 -9 -7 -8 -10 3 -167 -83 -171 -94 -2
-4 -12 -8 -23 -8 -10 0 -19 -4 -19 -10 0 -5 -7 -10 -15 -10 -8 0 -15 -5 -15
-10 0 -6 -3 -9 -7 -8 -5 1 -19 -4 -33 -13 -62 -37 -88 -51 -130 -72 -25 -12
-47 -24 -50 -27 -12 -13 -83 -50 -87 -46 -10 9 -8 96 2 96 7 0 7 3 0 8 -6 4
-11 121 -12 307 -7 838 -8 915 -18 915 -7 0 -7 3 0 8 12 8 14 92 3 92 -4 0 -4
11 1 23 5 13 6 30 1 37 -5 7 -4 24 1 37 5 15 5 23 -2 23 -6 0 -6 6 0 19 6 10
8 21 4 24 -5 6 -8 192 -17 953 -1 154 -6 285 -9 291 -4 6 -2 13 4 15 7 2 7 12
0 30 -5 14 -7 29 -4 32 6 6 5 68 -1 154 -1 17 3 32 8 32 7 0 8 3 1 8 -6 4 -11
117 -12 297 -3 585 -7 740 -18 747 -6 5 -6 8 0 8 11 0 14 148 3 165 -4 6 -3
17 2 25 5 9 5 19 -2 27 -6 7 -6 13 -1 13 10 0 9 57 -1 67 -3 3 -1 14 5 24 5
11 6 19 1 19 -10 0 -9 30 2 48 4 6 3 12 -2 12 -5 0 -7 12 -5 28 2 15 4 32 3
37 0 6 -1 136 -3 290 -1 172 -6 283 -12 287 -7 5 -7 8 0 8 7 0 9 24 5 65 -3
35 -5 187 -5 337 0 171 -4 276 -10 280 -7 5 -7 8 0 8 11 0 12 50 1 68 -4 7 -4
12 1 12 4 0 8 11 8 25 0 14 -3 25 -7 25 -6 0 -2 41 7 68 2 6 1 12 -3 12 -4 0
-7 143 -7 318 0 174 -1 320 -3 325 -2 4 -4 121 -5 260 -1 155 -6 255 -12 259
-6 5 -6 8 1 8 9 0 12 47 4 58 -3 3 -3 51 0 55 7 10 4 47 -4 50 -6 2 -42 -16
-81 -40z"/>
</g>
</svg>
